<!DOCTYPE svg PUBLIC "-//W3C//DTD SVG 1.1//EN" "http://www.w3.org/Graphics/SVG/1.1/DTD/svg11.dtd">
<!-- Uploaded to: SVG Repo, www.svgrepo.com, Transformed by: SVG Repo Mixer Tools -->
<svg fill="#ff7300" width="800px" height="800px" viewBox="-1.6 -1.6 19.20 19.20" xmlns="http://www.w3.org/2000/svg" stroke="#ff7300" stroke-width="0.00016">
<g id="SVGRepo_bgCarrier" stroke-width="0"/>
<g id="SVGRepo_tracerCarrier" stroke-linecap="round" stroke-linejoin="round" stroke="#CCCCCC" stroke-width="0.41600000000000004"> <path d="M0 10l8 4 8-4v2l-8 4-8-4v-2zm0-4l8 4 8-4v2l-8 4-8-4V6zm8-6l8 4-8 4-8-4 8-4z" fill-rule="evenodd"/> </g>
<g id="SVGRepo_iconCarrier"> <path d="M0 10l8 4 8-4v2l-8 4-8-4v-2zm0-4l8 4 8-4v2l-8 4-8-4V6zm8-6l8 4-8 4-8-4 8-4z" fill-rule="evenodd"/> </g>
</svg>